<svg width="24" height="24" viewBox="0 0 24 24" fill="none" xmlns="http://www.w3.org/2000/svg">
<path d="M22.5971 13.1098C23.1343 12.496 23.1343 11.4991 22.5971 10.8853L17.0969 4.59955C16.5597 3.98571 15.6874 3.98571 15.1503 4.59955C14.6132 5.21339 14.6132 6.21027 15.1503 6.82411L18.3044 10.4286H9.2504C8.48982 10.4286 7.87534 11.1308 7.87534 12C7.87534 12.8692 8.48982 13.5714 9.2504 13.5714H18.3044L15.1503 17.1759C14.6132 17.7897 14.6132 18.7866 15.1503 19.4004C15.6874 20.0143 16.5597 20.0143 17.0969 19.4004L22.5971 13.1147V13.1098ZM7.87534 4.14286C8.63592 4.14286 9.2504 3.44062 9.2504 2.57143C9.2504 1.70223 8.63592 1 7.87534 1H5.1252C2.84775 1 1 3.11161 1 5.71429V18.2857C1 20.8884 2.84775 23 5.1252 23H7.87534C8.63592 23 9.2504 22.2978 9.2504 21.4286C9.2504 20.5594 8.63592 19.8571 7.87534 19.8571H5.1252C4.36462 19.8571 3.75013 19.1549 3.75013 18.2857V5.71429C3.75013 4.84509 4.36462 4.14286 5.1252 4.14286H7.87534Z" fill="#616161"/>
</svg>

