<svg width="24" height="24" viewBox="0 0 24 24" fill="none" xmlns="http://www.w3.org/2000/svg">
<path d="M17.6242 1.4018C18.9515 0.129086 21.1055 0.129086 22.4329 1.4018L23.0045 1.95042C24.3318 3.22327 24.3318 5.28691 23.0045 6.55886L13.6893 15.4897C13.2784 15.8789 12.7729 16.1641 12.2155 16.318L7.49181 17.6126C7.09502 17.7212 6.66988 17.6126 6.37701 17.2957C6.08886 17.0558 5.9755 16.6484 6.08886 16.2682L7.43985 11.7417C7.60045 11.2076 7.89805 10.7232 8.30429 10.3294L17.6242 1.4018ZM20.7891 2.9381C20.3875 2.51397 19.6695 2.51397 19.2255 2.9381L17.8509 4.25486L20.0285 6.34158L21.4031 4.98363C21.8472 4.59888 21.8472 3.91085 21.4031 3.48672L20.7891 2.9381ZM9.6222 12.3392L8.82862 14.9872L11.592 14.2268C11.7809 14.177 11.9463 14.0819 12.0833 13.9506L18.4272 7.87607L16.2496 5.78935L9.91035 11.8685C9.77336 11.9997 9.67416 12.1581 9.6222 12.3392ZM9.44742 3.1685C10.0757 3.1685 10.5811 3.6551 10.5811 4.25486C10.5811 4.85689 10.0757 5.34123 9.44742 5.34123H4.15687C3.1134 5.34123 2.26738 6.15147 2.26738 7.15183V19.4639C2.26738 20.4643 3.1134 21.2745 4.15687 21.2745H17.0054C18.0493 21.2745 18.8948 20.4643 18.8948 19.4639V14.3942C18.8948 13.7922 19.4003 13.3079 20.0285 13.3079C20.6568 13.3079 21.1622 13.7922 21.1622 14.3942V19.4639C21.1622 21.6638 19.3011 23.4473 17.0054 23.4473H4.15687C1.86114 23.4473 0 21.6638 0 19.4639V7.15183C0 4.95195 1.86114 3.1685 4.15687 3.1685H9.44742Z" fill="#616161"/>
</svg>
