<svg width="118" height="25" viewBox="0 0 118 25" fill="none" xmlns="http://www.w3.org/2000/svg">
<path d="M39.5416 21.2218C38.0371 19.7552 37.2832 17.8294 37.2832 15.4537C37.2832 13.0749 38.0434 11.1617 39.567 9.71101C41.0906 8.26028 42.9816 7.53809 45.24 7.53809C47.4985 7.53809 49.3895 8.26345 50.913 9.71101C52.4366 11.1617 53.1968 13.0749 53.1968 15.4537C53.1968 17.8325 52.4303 19.7552 50.8972 21.2218C49.3641 22.6915 47.4636 23.4232 45.1988 23.4232C42.9309 23.4232 41.0462 22.6915 39.5416 21.2218ZM45.1988 20.1068C46.2948 20.1068 47.2387 19.7014 48.0274 18.8937C48.8161 18.0859 49.2121 16.9425 49.2121 15.4664C49.2121 13.9903 48.8225 12.85 48.0401 12.0518C47.2609 11.2536 46.317 10.8545 45.2115 10.8545C44.106 10.8545 43.1716 11.2536 42.4114 12.0518C41.648 12.85 41.2679 13.9935 41.2679 15.4791C41.2679 16.9646 41.648 18.1081 42.4114 18.9063C43.1748 19.7077 44.1029 20.1068 45.1988 20.1068Z" fill="#339698"/>
<path d="M60.0285 7.76005V10.4905C61.0675 8.52026 62.5752 7.53516 64.5423 7.53516V11.5484H63.5667C62.3947 11.5484 61.5141 11.8398 60.9186 12.4258C60.3231 13.0118 60.0254 14.0191 60.0254 15.4508V23.1986H56.0977V7.76005H60.0285Z" fill="#339698"/>
<path d="M73.3758 19.9132H75.2447V23.2011H72.7645C71.1839 23.2011 69.9676 22.84 69.1123 22.1146C68.2571 21.3893 67.8295 20.192 67.8295 18.5195V10.965H66.1855V7.75947H67.8295V3.93945H71.7604V7.75947H75.2162V10.965H71.7604V18.5195C71.7604 19.02 71.8808 19.3779 72.1215 19.5933C72.3654 19.8055 72.7835 19.9132 73.3758 19.9132Z" fill="#339698"/>
<path d="M82.7151 3.82945C82.7151 4.4978 82.4839 5.06479 82.0183 5.53041C81.5526 5.99604 80.992 6.22727 80.3332 6.22727C79.6743 6.22727 79.1105 5.99604 78.648 5.53041C78.1824 5.06796 77.9512 4.4978 77.9512 3.82945C77.9512 3.16111 78.1824 2.59412 78.648 2.1285C79.1137 1.66604 79.6743 1.43164 80.3332 1.43164C80.992 1.43164 81.5558 1.66287 82.0183 2.1285C82.4839 2.59412 82.7151 3.16111 82.7151 3.82945ZM78.3693 23.202V7.76035H82.3002V23.202H78.3693Z" fill="#339698"/>
<path d="M90.4621 23.2021H86.5312V2.5752H90.4621V14.3647L95.6759 7.76043H101L94.1428 15.5652L101 23.2021H95.7614L90.4653 16.7625V23.2021H90.4621Z" fill="#339698"/>
<path d="M104.022 21.1806C102.638 19.6855 101.947 17.7755 101.947 15.4537C101.947 13.1319 102.635 11.2314 104.009 9.75535C105.384 8.27929 107.132 7.53809 109.248 7.53809C111.364 7.53809 112.983 8.41232 114.098 10.1576V7.75981H118V23.2015H114.098V20.6104C112.926 22.4888 111.301 23.4264 109.22 23.4264C107.139 23.4232 105.406 22.6757 104.022 21.1806ZM112.872 18.8113C113.689 18.0036 114.098 16.8918 114.098 15.4791C114.098 14.0663 113.689 12.9577 112.872 12.15C112.055 11.3423 111.098 10.9368 110.002 10.9368C108.906 10.9368 107.953 11.3359 107.145 12.1342C106.337 12.9324 105.932 14.0378 105.932 15.4505C105.932 16.8633 106.341 17.9782 107.158 18.7955C107.975 19.6127 108.928 20.0213 110.015 20.0213C111.101 20.0213 112.055 19.619 112.872 18.8113Z" fill="#339698"/>
<path d="M12.6312 21.357C12.6787 24.5309 7.69306 24.5309 7.74057 21.357C7.69623 18.1831 12.6787 18.1831 12.6312 21.357Z" fill="#339698"/>
<path d="M20.9189 6.50556C20.9854 11.1491 13.6906 11.1491 13.7603 6.50556C13.6906 1.85882 20.9854 1.85882 20.9189 6.50556Z" fill="#339698"/>
<path d="M29.5103 20.5622C29.5832 25.475 21.8671 25.475 21.94 20.5622C21.8671 15.6525 29.5832 15.6525 29.5103 20.5622Z" fill="#339698"/>
<path d="M39.2532 4.00296C39.3324 9.34341 30.9448 9.34341 31.024 4.00296C30.9448 -1.33432 39.3324 -1.33432 39.2532 4.00296Z" fill="#339698"/>
<path d="M13.1439 21.3599C13.2009 25.1989 7.16995 25.1989 7.22696 21.3599C7.16995 17.5209 13.1977 17.5178 13.1439 21.3599Z" fill="#339698"/>
<path d="M6.29429 9.98993C6.35447 14.0729 -0.059762 14.0729 0.000420882 9.98993C-0.059762 5.907 6.35447 5.907 6.29429 9.98993Z" fill="#339698"/>
<path d="M4.23973 9.41578L2.34375 10.5654L9.23673 21.9332L11.1327 20.7835L4.23973 9.41578Z" fill="#339698"/>
<path d="M33.9006 3.29781L24.4863 19.8594L26.9648 21.2682L36.379 4.70665L33.9006 3.29781Z" fill="#339698"/>
<path d="M16.1988 5.9542L9.04688 20.7461L11.3283 21.8492L18.4802 7.05726L16.1988 5.9542Z" fill="#339698"/>
<path d="M18.4369 5.71737L16.2422 6.98438L24.6314 21.5161L26.8261 20.2491L18.4369 5.71737Z" fill="#339698"/>
</svg>
