<svg width="119" height="24" viewBox="0 0 119 24" fill="none" xmlns="http://www.w3.org/2000/svg">
<g clip-path="url(#clip0_8063_1001)">
<path d="M39.8243 21.3756C38.3086 19.8989 37.5508 17.9617 37.5508 15.5641C37.5508 13.1664 38.318 11.2386 39.8525 9.78069C41.3856 8.32143 43.2892 7.5918 45.5633 7.5918C47.8375 7.5918 49.7418 8.32143 51.2762 9.78069C52.8106 11.2413 53.5779 13.1691 53.5779 15.5641C53.5779 17.959 52.806 19.8962 51.2621 21.3756C49.7196 22.8523 47.8066 23.5907 45.523 23.5907C43.2395 23.5907 41.3399 22.8523 39.8243 21.3756ZM45.523 20.252C46.0566 20.2571 46.5855 20.1513 47.076 19.9412C47.5665 19.7312 48.008 19.4214 48.3724 19.0317C49.1658 18.2168 49.5632 17.0656 49.5646 15.5782C49.5659 14.0907 49.1726 12.9442 48.3845 12.1387C48.0197 11.7508 47.5781 11.4431 47.0879 11.2351C46.5977 11.0271 46.0696 10.9234 45.5371 10.9305C45.0087 10.9222 44.4844 11.0255 43.9986 11.2337C43.5128 11.4419 43.0764 11.7503 42.718 12.1387C41.9501 12.9442 41.5668 14.0954 41.5681 15.5923C41.5695 17.0891 41.9527 18.2403 42.718 19.0458C43.0743 19.4328 43.5084 19.7404 43.9918 19.9482C44.4751 20.1561 44.9969 20.2596 45.523 20.252Z" fill="#339698"/>
<path d="M60.457 7.81532V10.566C61.5041 8.58321 63.0198 7.5918 65.0039 7.5918V11.6333H64.0213C62.8426 11.6333 61.9539 11.928 61.3551 12.5173C60.7564 13.1067 60.457 14.1222 60.457 15.5641V23.3672H56.498V7.81532H60.457Z" fill="#339698"/>
<path d="M73.9015 20.0541H75.7823V23.3666H73.2853C71.6944 23.3666 70.4681 23.0021 69.6062 22.2732C68.7443 21.5442 68.3141 20.336 68.3154 18.6485V11.0427H66.6602V7.82079H68.3154V3.97461H72.2744V7.82079H75.7541V11.0427H72.2744V18.6505C72.2744 19.1553 72.3959 19.5157 72.6389 19.7319C72.8818 19.948 73.3027 20.0554 73.9015 20.0541Z" fill="#339698"/>
<path d="M83.3074 3.85809C83.31 4.17481 83.2499 4.48892 83.1304 4.78224C83.0109 5.07557 82.8345 5.3423 82.6113 5.56701C82.3881 5.79172 82.1225 5.96994 81.83 6.09139C81.5375 6.21283 81.2238 6.27509 80.9071 6.27454C80.591 6.28 80.2773 6.22044 79.9852 6.09954C79.6932 5.97864 79.4292 5.799 79.2095 5.57176C78.9222 5.29341 78.7086 4.94809 78.5877 4.5668C78.4667 4.18551 78.4424 3.78017 78.5167 3.38714C78.5911 2.99411 78.7619 2.62569 79.0137 2.31493C79.2656 2.00417 79.5906 1.76078 79.9597 1.60661C80.3288 1.45245 80.7304 1.39231 81.1285 1.43161C81.5265 1.47091 81.9086 1.60841 82.2404 1.83178C82.5723 2.05515 82.8435 2.3574 83.0297 2.71141C83.2159 3.06542 83.3113 3.46013 83.3074 3.86011V3.85809ZM78.9296 23.3669V7.81503H82.8865V23.3669H78.9296Z" fill="#339698"/>
<path d="M91.1105 23.3671H87.1455V2.59375H91.1044V14.4746L96.3522 7.82939H101.715L94.8097 15.6828L101.715 23.3732H96.4428L91.1105 16.8891V23.3671Z" fill="#339698"/>
<path d="M104.769 21.3372C103.374 19.831 102.677 17.9079 102.677 15.568C102.677 13.228 103.369 11.3143 104.755 9.82689C106.138 8.33943 107.897 7.5957 110.033 7.5957C112.169 7.5957 113.796 8.47502 114.916 10.2337V7.81721H118.847V23.3691H114.916V20.7512C113.739 22.6414 112.102 23.5866 110.005 23.5866C109.021 23.6105 108.045 23.422 107.141 23.0338C106.238 22.6456 105.428 22.0669 104.769 21.3372ZM113.682 18.951C114.505 18.1348 114.916 17.0165 114.916 15.5962C114.916 14.1758 114.505 13.0575 113.682 12.2413C113.307 11.8553 112.86 11.5481 112.365 11.3379C111.87 11.1277 111.338 11.0187 110.8 11.0174C110.262 11.016 109.73 11.1224 109.234 11.3302C108.738 11.538 108.289 11.843 107.912 12.2272C107.099 13.0327 106.691 14.1463 106.69 15.568C106.689 16.9896 107.101 18.1126 107.926 18.9369C108.298 19.3258 108.744 19.6357 109.238 19.8478C109.732 20.0599 110.263 20.1699 110.801 20.1712C111.339 20.1726 111.871 20.0651 112.366 19.8554C112.861 19.6457 113.309 19.3381 113.682 18.951Z" fill="#339698"/>
<path d="M12.7198 21.5105C12.7681 24.7043 7.74792 24.7043 7.79625 21.5105C7.74993 18.3168 12.7681 18.3168 12.7198 21.5105Z" fill="#339698"/>
<path d="M21.069 6.55286C21.1375 11.2307 13.7874 11.2307 13.8579 6.55286C13.7895 1.87301 21.1375 1.87301 21.069 6.55286Z" fill="#339698"/>
<path d="M29.7241 20.7108C29.7966 25.6584 22.0237 25.6584 22.0982 20.7108C22.0257 15.7631 29.7966 15.7631 29.7241 20.7108Z" fill="#339698"/>
<path d="M39.5371 4.03396C39.6156 9.41055 31.1681 9.41055 31.2467 4.03396C31.1661 -1.34465 39.6237 -1.34465 39.5371 4.03396Z" fill="#339698"/>
<path d="M13.2452 21.5101C13.3016 25.3764 7.22623 25.3764 7.28463 21.5101C7.22422 17.6438 13.2976 17.6438 13.2452 21.5101Z" fill="#339698"/>
<path d="M6.33756 10.0606C6.39797 14.1725 -0.0599899 14.1725 0.000421348 10.0606C-0.0599899 5.94857 6.39596 5.94857 6.33756 10.0606Z" fill="#339698"/>
<path d="M4.50258 9.66686L2.58203 10.8281L9.54438 22.3428L11.4649 21.1815L4.50258 9.66686Z" fill="#339698"/>
<path d="M34.1421 3.31783L24.6631 19.9971L27.1596 21.4159L36.6386 4.73664L34.1421 3.31783Z" fill="#339698"/>
<path d="M16.3138 5.9945L9.11133 20.8936L11.4102 22.0049L18.6127 7.10581L16.3138 5.9945Z" fill="#339698"/>
<path d="M18.5679 5.75752L16.3584 7.0332L24.8069 21.6664L27.0165 20.3908L18.5679 5.75752Z" fill="#339698"/>
</g>
<defs>
<clipPath id="clip0_8063_1001">
<rect width="119" height="24" fill="white"/>
</clipPath>
</defs>
</svg>
