<svg width="156" height="146" viewBox="0 0 156 146" fill="none" xmlns="http://www.w3.org/2000/svg">
<g clip-path="url(#clip0_8068_1019)">
<path d="M105.155 103.267H49.1938C44.4899 103.267 40.6631 99.4401 40.6631 94.7363V38.7748C40.6631 34.071 44.4899 30.2441 49.1938 30.2441H105.155C109.859 30.2441 113.686 34.071 113.686 38.7748V94.7363C113.686 99.4401 109.859 103.267 105.155 103.267ZM49.1938 31.6091C45.2362 31.6091 42.028 34.8173 42.028 38.7748V94.7362C42.028 98.6938 45.2362 101.902 49.1938 101.902H88.3934C101.608 101.902 112.321 91.1893 112.321 77.9744V38.7748C112.321 34.8173 109.113 31.6091 105.155 31.6091H49.1938V31.6091Z" fill="#F2F2F2"/>
<path d="M55.2261 37.4297C52.5775 37.4297 50.4229 39.5843 50.4229 42.233V49.7511C50.4229 52.3997 52.5775 54.5544 55.2261 54.5544H62.7443C65.3929 54.5544 67.5475 52.3997 67.5475 49.7511V42.233C67.5475 39.5843 65.3929 37.4297 62.7443 37.4297H55.2261Z" fill="#F2F2F2"/>
<path d="M55.2261 58.5928C52.5775 58.5928 50.4229 60.7474 50.4229 63.396V70.9142C50.4229 73.5628 52.5775 75.7175 55.2261 75.7175H62.7443C65.3929 75.7175 67.5475 73.5628 67.5475 70.9142V63.396C67.5475 60.7474 65.3929 58.5928 62.7443 58.5928H55.2261Z" fill="#F2F2F2"/>
<path d="M55.2261 79.7578C52.5775 79.7578 50.4229 81.9125 50.4229 84.5611V92.0792C50.4229 94.7278 52.5775 96.8825 55.2261 96.8825H62.7443C65.3929 96.8825 67.5475 94.7278 67.5475 92.0792V84.5611C67.5475 81.9125 65.3929 79.7578 62.7443 79.7578H55.2261Z" fill="#F2F2F2"/>
<path d="M60.2114 19.0859C56.8741 19.0859 54.1592 21.8009 54.1592 25.1382V34.6113C54.1592 37.9486 56.8741 40.6635 60.2114 40.6635H69.6845C73.0219 40.6635 75.7368 37.9486 75.7368 34.6113V25.1382C75.7368 21.8009 73.0219 19.0859 69.6845 19.0859H60.2114Z" fill="#83C389"/>
<path d="M91.3989 45.5605C88.0616 45.5605 85.3467 48.2755 85.3467 51.6128V61.0859C85.3467 64.4232 88.0616 67.1382 91.3989 67.1382H100.872C104.209 67.1382 106.924 64.4232 106.924 61.0859V51.6128C106.924 48.2755 104.209 45.5605 100.872 45.5605H91.3989Z" fill="#83C389"/>
<path d="M77.8398 140.909L75.9154 140.893L75.0635 133.297L77.9038 133.321L77.8398 140.909Z" fill="#A0616A"/>
<path d="M71.6758 143.97C71.6716 144.444 72.0535 144.834 72.5289 144.838L76.3552 144.87L77.025 143.512L77.271 144.877L78.7148 144.89L78.3502 140.023L77.8479 139.989L75.7991 139.848L75.1381 139.804L75.1265 141.181L72.0528 143.266C71.819 143.425 71.6781 143.688 71.6758 143.97H71.6758Z" fill="#2F2E41"/>
<path d="M87.6309 140.91L85.7064 140.894L84.8545 133.298L87.6948 133.322L87.6309 140.91Z" fill="#A0616A"/>
<path d="M81.4668 143.97C81.4627 144.444 81.8445 144.834 82.3199 144.838L86.1462 144.87L86.816 143.512L87.0621 144.877L88.5058 144.89L88.1412 140.023L87.6389 139.989L85.5901 139.848L84.9291 139.804L84.9175 141.181L81.8439 143.266C81.61 143.425 81.4692 143.688 81.4668 143.97Z" fill="#2F2E41"/>
<path d="M70.2877 79.4951L78.0885 79.7415L85.4788 81.3837C85.4788 81.3837 84.7398 82.287 87.2032 84.7504C87.2032 84.7504 90.4877 90.4984 88.1885 96.0821L87.2032 118.417C87.2032 118.417 90.0762 134.162 87.8811 139.173L84.9799 139.354L80.0707 118.599L77.678 96.2464L76.5284 118.253C76.5284 118.253 80.9263 133.358 78.1492 139.354L75.007 139.173L69.6308 118.253C69.6308 118.253 67.3316 94.1114 67.66 89.513C67.9885 84.9146 70.2877 79.4951 70.2877 79.4951H70.2877Z" fill="#2F2E41"/>
<path d="M96.4853 44.2019C95.4189 44.478 94.7783 45.5663 95.0544 46.6327C95.1809 47.1213 95.4791 47.5189 95.8664 47.7815L95.8663 47.7842L95.715 51.4485L98.5191 52.7461L98.7429 47.1075L98.7234 47.1081C98.9665 46.6749 99.0505 46.1516 98.9162 45.6328C98.6401 44.5664 97.5517 43.9257 96.4853 44.2019V44.2019Z" fill="#A0616A"/>
<path d="M80.8131 57.279C80.224 56.6951 79.8823 55.9034 79.8695 55.0426C79.8523 53.8878 80.4311 52.8396 81.4175 52.2389C82.5535 51.547 83.9741 51.617 85.0367 52.417L93.8419 59.0467L95.4109 49.4961L98.7794 50.5804L97.9757 63.0168C97.9194 63.8867 97.4278 64.653 96.6605 65.0667C95.8931 65.4804 94.9828 65.47 94.2251 65.039L81.5001 57.7993C81.2445 57.6538 81.0143 57.4784 80.8131 57.279V57.279Z" fill="#3F3D56"/>
<path d="M67.3866 38.8605C67.9495 39.8073 67.6382 41.0313 66.6914 41.5942C66.2575 41.8521 65.7659 41.9245 65.3059 41.8383L65.3041 41.8403L62.8317 44.5489L59.9268 43.4962L63.7377 39.3344L63.7512 39.3485C63.8835 38.8698 64.1922 38.439 64.6529 38.1651C65.5998 37.6022 66.8237 37.9136 67.3866 38.8605Z" fill="#A0616A"/>
<path d="M68.4548 59.0664L54.321 55.2486C53.4795 55.0212 52.8257 54.3876 52.5721 53.5536C52.3184 52.7196 52.5089 51.8292 53.0813 51.1719L61.2664 41.7744L64.422 43.376L58.812 51.263L69.7327 52.7543C71.0505 52.9343 72.1086 53.8847 72.4282 55.1759C72.7058 56.297 72.3788 57.4488 71.5536 58.2568C70.9384 58.8591 70.1384 59.1807 69.309 59.1806C69.0257 59.1806 68.7387 59.143 68.4548 59.0664H68.4548Z" fill="#3F3D56"/>
<path d="M88.606 82.7811L68.8417 83.6877C68.2989 82.8634 68.4459 81.6239 69.2061 80.0717C72.0763 74.2113 69.8965 63.1247 68.4301 57.3518C68.0186 55.732 69.1231 54.1218 70.786 53.9555L72.6495 53.7692L74.3721 48.5107H80.405L82.9079 51.3701L87.1555 53.9505C86.3823 61.9142 83.088 73.1596 87.7811 78.7991C88.8076 80.0326 89.0986 81.3664 88.606 82.7811Z" fill="#3F3D56"/>
<path d="M76.6195 48.6325C79.8648 48.6325 82.4958 46.0016 82.4958 42.7562C82.4958 39.5108 79.8648 36.8799 76.6195 36.8799C73.3741 36.8799 70.7432 39.5108 70.7432 42.7562C70.7432 46.0016 73.3741 48.6325 76.6195 48.6325Z" fill="#A0616A"/>
<path d="M83.2692 38.9948C84.0868 36.014 75.1761 33.4579 73.4445 35.8584C73.2037 35.5171 72.3138 35.3098 71.9056 35.4145C71.4973 35.5192 71.1539 35.7809 70.8189 36.0342C70.3583 36.3881 69.8809 36.7545 69.5983 37.2633C69.3135 37.7699 69.2695 38.4609 69.6527 38.9006C69.9563 39.2502 70.4898 41.1083 70.9462 41.2004C71.2644 41.2653 71.5324 41.3176 71.7628 41.3553C71.9679 41.0559 72.4912 40.6798 72.4535 40.3176C72.7634 40.5228 72.6502 40.8838 72.5877 41.2527C72.3797 42.4813 67.6927 51.9917 70.3771 49.1892C70.6431 49.3462 70.9718 49.4928 71.3507 49.6268C71.9935 48.6574 72.5211 47.5142 72.8687 46.3187L72.8712 46.3408C72.9908 47.3797 73.7501 48.2322 74.7546 48.5232C78.7842 49.6906 82.0436 47.9776 83.1649 44.8886C82.7544 44.0553 82.5756 44.1458 82.6124 44.121C83.1248 43.7756 83.829 44.0015 84.0492 44.5788C84.1142 44.7491 84.1732 44.8944 84.2243 45.0037C84.8085 42.9142 85.5032 43.2158 83.2692 38.9948H83.2692Z" fill="#2F2E41"/>
<path d="M80.4897 36.833L80.0781 34.7287C80.0435 34.5518 80.0106 34.3598 80.0904 34.1982C80.1929 33.9905 80.4563 33.9045 80.6855 33.9376C80.9147 33.9707 81.0862 34.18 81.3142 34.2203C82.1071 34.3605 83.1552 33.5773 83.4393 35.5586C83.5578 36.3847 84.8759 36.4719 85.3161 37.1809C85.7563 37.8899 85.8104 38.9132 85.2096 39.4924C84.7298 39.955 83.9592 40.0084 83.336 39.7721C82.7128 39.5358 82.2127 39.0585 81.7758 38.5551C81.3389 38.0518 80.9433 37.5071 80.4394 37.0709" fill="#2F2E41"/>
<path d="M83.583 40.0329C81.9751 39.8083 80.8791 39.2235 80.3255 38.2949C79.6009 37.0794 80.0862 35.741 80.1072 35.6846L80.4471 35.8109C80.4426 35.8232 80.0023 37.0484 80.6389 38.1124C81.1341 38.94 82.1415 39.4654 83.6331 39.6738L83.583 40.0329Z" fill="#83C389"/>
<path d="M91.13 17.2962C86.4029 17.2962 82.5566 13.4499 82.5566 8.72281C82.5566 3.99572 86.4029 0.149414 91.13 0.149414C95.8571 0.149414 99.7034 3.99572 99.7034 8.72281C99.7034 13.4499 95.8571 17.2962 91.13 17.2962ZM91.13 3.57877C88.2934 3.57877 85.986 5.88622 85.986 8.72281C85.986 11.5594 88.2934 13.8668 91.13 13.8668C93.9666 13.8668 96.2741 11.5594 96.2741 8.72281C96.2741 5.88622 93.9666 3.57877 91.13 3.57877Z" fill="#83C389"/>
<path d="M104.32 23.1228C103.9 23.1228 103.479 22.9696 103.148 22.659L95.1012 15.1179C94.4096 14.4707 94.3745 13.3856 95.0225 12.6949C95.6688 12.0017 96.7539 11.9673 97.4455 12.6162L105.492 20.1573C106.184 20.8045 106.219 21.8895 105.571 22.5803C105.234 22.9411 104.777 23.1228 104.32 23.1228Z" fill="#83C389"/>
<path d="M140.687 140.716C141.27 140.752 141.593 140.028 141.151 139.606L141.108 139.431C141.113 139.417 141.119 139.403 141.125 139.389C141.715 137.983 143.713 137.993 144.297 139.401C144.816 140.651 145.477 141.902 145.639 143.224C145.712 143.807 145.679 144.401 145.55 144.973C146.766 142.318 147.405 139.418 147.405 136.502C147.405 135.769 147.365 135.036 147.283 134.305C147.216 133.708 147.123 133.113 147.003 132.525C146.352 129.342 144.943 126.311 142.911 123.78C141.934 123.246 141.119 122.411 140.627 121.41C140.45 121.049 140.312 120.661 140.246 120.266C140.357 120.28 140.665 118.587 140.581 118.483C140.736 118.248 141.014 118.131 141.183 117.902C142.025 116.761 143.184 116.96 143.789 118.51C145.082 119.163 145.095 120.245 144.302 121.286C143.797 121.948 143.727 122.845 143.284 123.554C143.33 123.612 143.377 123.668 143.423 123.727C144.259 124.798 144.981 125.95 145.591 127.161C145.418 125.816 145.673 124.195 146.106 123.151C146.599 121.961 147.524 120.958 148.338 119.93C149.316 118.694 151.322 119.233 151.494 120.8C151.496 120.815 151.498 120.83 151.499 120.845C151.378 120.913 151.26 120.986 151.144 121.062C150.484 121.499 150.712 122.522 151.494 122.643L151.512 122.646C151.468 123.082 151.393 123.513 151.284 123.938C152.329 127.978 150.073 129.449 146.853 129.515C146.782 129.552 146.713 129.588 146.642 129.623C146.968 130.542 147.229 131.484 147.422 132.439C147.595 133.283 147.715 134.136 147.783 134.993C147.867 136.073 147.859 137.16 147.768 138.239L147.774 138.2C148.005 137.012 148.65 135.902 149.587 135.133C150.983 133.986 152.955 133.564 154.46 132.643C155.185 132.199 156.114 132.772 155.987 133.613L155.981 133.653C155.757 133.744 155.538 133.85 155.327 133.968C155.206 134.036 155.087 134.109 154.972 134.186C154.311 134.622 154.54 135.646 155.322 135.766L155.34 135.769C155.352 135.771 155.363 135.773 155.376 135.775C154.991 136.688 154.456 137.535 153.785 138.266C153.132 141.793 150.326 142.127 147.325 141.1H147.323C146.995 142.529 146.516 143.925 145.9 145.256H140.815C140.797 145.199 140.78 145.141 140.764 145.085C141.234 145.114 141.708 145.086 142.171 145.001C141.794 144.538 141.416 144.071 141.039 143.608C141.03 143.599 141.023 143.59 141.015 143.581C140.824 143.344 140.631 143.109 140.439 142.872L140.439 142.872C140.427 142.144 140.514 141.419 140.687 140.716L140.687 140.716Z" fill="#F2F2F2"/>
<path d="M-0.000976562 145.27C-0.000976562 145.457 0.148595 145.606 0.334852 145.606H155.624C155.81 145.606 155.959 145.457 155.959 145.27C155.959 145.084 155.81 144.935 155.624 144.935H0.334852C0.148595 144.935 -0.000976562 145.084 -0.000976562 145.27Z" fill="#CCCCCC"/>
</g>
<defs>
<clipPath id="clip0_8068_1019">
<rect width="156" height="146" fill="white"/>
</clipPath>
</defs>
</svg>
